<?xml version="1.0" encoding="UTF-8" standalone="no"?>
<svg width="84px" height="68px" viewBox="0 0 84 68" version="1.1" xmlns="http://www.w3.org/2000/svg" xmlns:xlink="http://www.w3.org/1999/xlink" xmlns:sketch="http://www.bohemiancoding.com/sketch/ns">
    <!-- Generator: Sketch 3.1 (8751) - http://www.bohemiancoding.com/sketch -->
    <title>Slice 2</title>
    <desc>Created with Sketch.</desc>
    <defs></defs>
    <g id="Page" stroke="none" stroke-width="1" fill="none" fill-rule="evenodd" sketch:type="MSPage">
        <g id="icon" sketch:type="MSLayerGroup" fill="#000000">
            <path d="M49.541,31.803 L34.21,31.803 C32.968,31.803 31.96,30.795 31.96,29.553 C31.96,28.311 32.968,27.303 34.21,27.303 L49.541,27.303 C50.783,27.303 51.791,28.311 51.791,29.553 C51.791,30.795 50.783,31.803 49.541,31.803 L49.541,31.803 Z" id="Shape" sketch:type="MSShapeGroup"></path>
            <path d="M49.219,24.689 L34.21,24.689 C32.968,24.689 31.96,23.681 31.96,22.439 C31.96,21.197 32.968,20.189 34.21,20.189 L49.219,20.189 C50.461,20.189 51.469,21.197 51.469,22.439 C51.469,23.681 50.461,24.689 49.219,24.689 L49.219,24.689 Z" id="Shape" sketch:type="MSShapeGroup"></path>
            <path d="M81.445,24.689 L74.554,24.689 C73.312,24.689 72.304,23.681 72.304,22.439 C72.304,21.197 73.312,20.189 74.554,20.189 L81.445,20.189 C82.687,20.189 83.695,21.197 83.695,22.439 C83.695,23.681 82.688,24.689 81.445,24.689 L81.445,24.689 Z" id="Shape" sketch:type="MSShapeGroup"></path>
            <path d="M81.445,31.803 L74.554,31.803 C73.312,31.803 72.304,30.795 72.304,29.553 C72.304,28.311 73.312,27.303 74.554,27.303 L81.445,27.303 C82.687,27.303 83.695,28.311 83.695,29.553 C83.695,30.795 82.688,31.803 81.445,31.803 L81.445,31.803 Z" id="Shape" sketch:type="MSShapeGroup"></path>
            <path d="M9.442,24.689 L2.554,24.689 C1.312,24.689 0.304,23.681 0.304,22.439 C0.304,21.197 1.312,20.189 2.554,20.189 L9.442,20.189 C10.684,20.189 11.692,21.197 11.692,22.439 C11.692,23.681 10.685,24.689 9.442,24.689 L9.442,24.689 Z" id="Shape" sketch:type="MSShapeGroup"></path>
            <path d="M9.442,31.803 L2.554,31.803 C1.312,31.803 0.304,30.795 0.304,29.553 C0.304,28.311 1.312,27.303 2.554,27.303 L9.442,27.303 C10.684,27.303 11.692,28.311 11.692,29.553 C11.692,30.795 10.685,31.803 9.442,31.803 L9.442,31.803 Z" id="Shape" sketch:type="MSShapeGroup"></path>
            <path d="M30.416,67.768 L14.695,67.768 C13.453,67.768 12.445,66.76 12.445,65.518 L12.445,56.975 C12.445,56.462 12.621,55.964 12.942,55.566 L14.608,53.492 L11.955,35.19 L11.511,35.19 C10.358,35.19 9.391,34.317 9.273,33.171 C9.239,32.846 8.461,25.199 8.694,19.853 C8.725,19.153 9.079,18.508 9.653,18.107 C9.882,17.946 11.861,16.613 15.184,15.933 C14.222,13.923 13.77,11.603 13.69,11.155 C13.388,9.708 13.68,6.309 15.405,3.766 C16.873,1.604 19.095,0.382 21.83,0.236 L23.203,0.233 C26.049,0.385 28.26,1.598 29.719,3.743 C31.448,6.286 31.729,9.725 31.418,11.176 C31.332,11.648 30.882,13.939 29.93,15.931 C33.302,16.655 35.233,17.955 35.458,18.114 C36.032,18.512 36.385,19.16 36.417,19.857 C36.653,25.204 35.875,32.853 35.841,33.178 C35.722,34.324 34.756,35.197 33.603,35.197 L33.158,35.197 L30.507,53.496 L32.171,55.567 C32.492,55.968 32.666,56.463 32.666,56.976 L32.666,65.519 C32.666,66.76 31.658,67.768 30.416,67.768 L30.416,67.768 Z M16.945,63.268 L28.166,63.268 L28.166,57.766 L26.385,55.548 C25.995,55.062 25.824,54.435 25.913,53.817 L28.983,32.624 C29.143,31.517 30.092,30.696 31.21,30.696 L31.547,30.696 C31.737,28.393 32.001,24.532 31.956,21.303 C31.197,20.949 29.996,20.491 28.448,20.237 C26.848,19.976 25.991,19.171 25.553,18.541 C24.892,17.592 24.812,16.481 24.955,15.761 C25.022,15.418 25.17,15.096 25.386,14.818 C26.186,13.793 26.816,11.358 26.997,10.341 C27.016,10.233 27.042,10.127 27.078,10.022 C27.085,9.732 26.953,7.391 25.766,5.967 C25.127,5.199 24.248,4.795 23.081,4.731 L21.953,4.734 C20.904,4.793 20.022,5.2 19.375,5.97 C18.178,7.397 18.032,9.735 18.098,10.268 C18.334,11.545 18.962,13.833 19.725,14.809 C19.939,15.084 20.087,15.407 20.156,15.747 C20.302,16.468 20.225,17.578 19.567,18.53 C19.13,19.163 18.274,19.971 16.665,20.238 C15.118,20.49 13.918,20.944 13.157,21.299 C13.115,24.528 13.378,28.389 13.569,30.692 L13.903,30.692 C15.021,30.692 15.97,31.512 16.13,32.62 L19.203,53.819 C19.292,54.437 19.121,55.064 18.73,55.55 L16.947,57.768 L16.947,63.268 L16.945,63.268 Z" id="Shape" sketch:type="MSShapeGroup"></path>
            <path d="M68.76,67.768 L53.039,67.768 C51.797,67.768 50.789,66.76 50.789,65.518 L50.789,56.975 C50.789,56.462 50.965,55.964 51.284,55.566 L52.951,53.492 L50.297,35.196 L49.855,35.196 C48.701,35.196 47.734,34.323 47.617,33.175 C47.585,32.853 46.808,25.206 47.043,19.86 C47.072,19.16 47.427,18.515 47.998,18.114 C48.227,17.953 50.204,16.62 53.529,15.934 C52.568,13.927 52.117,11.613 52.035,11.164 C51.733,9.717 52.026,6.307 53.755,3.767 C55.223,1.608 57.443,0.386 60.177,0.237 L61.548,0.234 C64.393,0.386 66.605,1.599 68.064,3.747 C69.795,6.29 70.077,9.726 69.766,11.177 C69.681,11.643 69.227,13.937 68.272,15.932 C71.647,16.656 73.578,17.956 73.803,18.115 C74.374,18.516 74.729,19.158 74.758,19.858 C74.998,25.205 74.219,32.854 74.187,33.179 C74.07,34.325 73.103,35.198 71.949,35.198 L71.507,35.198 L68.853,53.497 L70.517,55.568 C70.836,55.969 71.012,56.464 71.012,56.977 L71.012,65.52 C71.01,66.76 70.002,67.768 68.76,67.768 L68.76,67.768 Z M55.289,63.268 L66.51,63.268 L66.51,57.766 L64.729,55.548 C64.339,55.062 64.167,54.435 64.257,53.817 L67.33,32.624 C67.491,31.517 68.437,30.696 69.557,30.696 L69.891,30.696 C70.081,28.393 70.345,24.532 70.298,21.303 C69.539,20.949 68.338,20.491 66.788,20.237 C65.188,19.976 64.33,19.171 63.893,18.541 C63.234,17.592 63.152,16.481 63.295,15.761 C63.362,15.418 63.512,15.096 63.726,14.818 C64.526,13.79 65.162,11.355 65.343,10.339 C65.364,10.231 65.39,10.125 65.422,10.023 C65.431,9.733 65.296,7.395 64.11,5.968 C63.468,5.2 62.589,4.796 61.423,4.732 L60.298,4.735 C59.249,4.797 58.364,5.204 57.717,5.977 C56.519,7.407 56.375,9.742 56.44,10.275 C56.674,11.552 57.304,13.84 58.069,14.816 C58.283,15.088 58.429,15.408 58.5,15.751 C58.649,16.472 58.573,17.582 57.914,18.537 C57.475,19.17 56.616,19.978 54.999,20.239 C53.458,20.494 52.263,20.951 51.504,21.305 C51.46,24.534 51.724,28.395 51.911,30.698 L52.245,30.698 C53.364,30.698 54.31,31.518 54.472,32.626 L57.545,53.819 C57.636,54.437 57.463,55.064 57.073,55.55 L55.289,57.768 L55.289,63.268 L55.289,63.268 Z" id="Shape" sketch:type="MSShapeGroup"></path>
        </g>
    </g>
</svg>